<svg width="14" height="17" viewBox="0 0 14 17" fill="none" xmlns="http://www.w3.org/2000/svg">
<path d="M1.83382 16C1.69066 15.9996 1.55003 15.9623 1.42548 15.8917C1.29676 15.8193 1.18958 15.7141 1.1149 15.5867C1.04022 15.4593 1.00074 15.3143 1.00048 15.1667V2.94167C0.989218 2.44193 1.17534 1.95789 1.51851 1.59444C1.86168 1.23099 2.33426 1.01741 2.83382 1H10.8338C11.3334 1.01741 11.8059 1.23099 12.1491 1.59444C12.4923 1.95789 12.6784 2.44193 12.6671 2.94167V15.1667C12.6663 15.3121 12.6273 15.4548 12.5543 15.5805C12.4812 15.7062 12.3764 15.8106 12.2505 15.8833C12.1238 15.9565 11.9801 15.995 11.8338 15.995C11.6875 15.995 11.5438 15.9565 11.4171 15.8833L6.69215 13.2083L2.25048 15.875C2.12511 15.9528 1.98132 15.996 1.83382 16Z" fill="#C2FF40" stroke="#C2FF40"/>
</svg>
